<svg width="38" height="40" viewBox="0 0 38 40" fill="none" xmlns="http://www.w3.org/2000/svg">
<path d="M2.95254 7.0368V9.32914H1.1348C0.494411 9.32914 0.120349 10.0513 0.489802 10.5744L4.47918 16.2224C4.79379 16.6679 5.45457 16.6679 5.76918 16.2224L9.75855 10.5744C10.128 10.0513 9.75394 9.32914 9.11355 9.32914H7.29582V7.0368C7.29582 5.55156 8.50418 4.3432 9.98949 4.3432C11.4748 4.3432 12.683 5.55156 12.683 7.0368V20.1065H17.0262V7.0368C17.0262 3.15672 13.8695 0 9.98941 0C6.10933 0 2.95254 3.15672 2.95254 7.0368Z" fill="#00E3FF"/>
<path d="M17.0255 7.03664V20.1062H14.6336V7.03664C14.6336 3.56461 12.1056 0.67125 8.79297 0.102266C9.18172 0.0346094 9.58086 0 9.98898 0C13.8691 0 17.0255 3.15656 17.0255 7.03664Z" fill="#00D0FF"/>
<path d="M30.2029 39.9999H7.79977C7.00305 39.9999 6.33133 39.4059 6.23398 38.6151L4.24609 22.467H33.7565L31.7687 38.6151C31.6713 39.4059 30.9996 39.9999 30.2029 39.9999Z" fill="#865FFF"/>
<path d="M4.24609 22.4673L4.59867 25.3306H15.8534C16.4356 25.3306 16.9819 25.6428 17.2505 26.1592C17.5791 26.7913 18.2398 27.2229 19.0013 27.2229C19.763 27.2229 20.4236 26.7913 20.7522 26.1592C21.0208 25.6428 21.567 25.3306 22.1492 25.3306H27.9644C29.2641 25.3306 30.2705 26.4685 30.1117 27.7585L28.7753 38.6148C28.6775 39.406 28.0063 39.9999 27.2095 39.9999H30.203C30.9998 39.9999 31.671 39.406 31.7688 38.6148L33.7566 22.4673H4.24609Z" fill="#5C27FE"/>
<path d="M16.3707 36.3227C15.5938 36.377 14.92 35.7913 14.8656 35.0144L14.4488 29.0537C14.3945 28.2769 14.9802 27.603 15.7572 27.5487C16.534 27.4944 17.2079 28.0801 17.2622 28.857L17.679 34.8176C17.7333 35.5945 17.1476 36.2683 16.3707 36.3227Z" fill="#070A29"/>
<path d="M10.7584 36.2906C9.98717 36.399 9.27413 35.8617 9.16577 35.0905L8.33421 29.1734C8.22585 28.4022 8.76311 27.6891 9.53436 27.5808C10.3056 27.4724 11.0187 28.0097 11.127 28.7809L11.9586 34.698C12.0669 35.4691 11.5296 36.1823 10.7584 36.2906Z" fill="#070A29"/>
<path d="M21.7025 36.3227C22.4793 36.377 23.1532 35.7913 23.2075 35.0144L23.6243 29.0537C23.6786 28.2769 23.0929 27.603 22.316 27.5487C21.5391 27.4944 20.8653 28.0801 20.8109 28.857L20.3941 34.8176C20.3399 35.5945 20.9256 36.2683 21.7025 36.3227Z" fill="#070A29"/>
<path d="M27.3156 36.2906C28.0869 36.399 28.7999 35.8617 28.9083 35.0905L29.7398 29.1734C29.8482 28.4022 29.3109 27.6891 28.5397 27.5808C27.7685 27.4724 27.0554 28.0097 26.947 28.7809L26.1155 34.698C26.007 35.4691 26.5444 36.1823 27.3156 36.2906Z" fill="#070A29"/>
<path d="M34.2805 23.359H3.72273C2.59875 23.359 1.6875 22.4479 1.6875 21.3238C1.6875 20.1998 2.59867 19.2886 3.72273 19.2886H34.2805C35.4045 19.2886 36.3158 20.1997 36.3158 21.3238C36.3158 22.4479 35.4045 23.359 34.2805 23.359Z" fill="#DEC7FF"/>
<path d="M36.315 21.3237C36.315 21.8861 36.087 22.394 35.7187 22.7624C35.3511 23.1308 34.8416 23.3587 34.2799 23.3587H31.4766C32.0382 23.3587 32.5477 23.1308 32.9153 22.7624C33.2837 22.394 33.5116 21.8861 33.5116 21.3237C33.5116 20.1996 32.6005 19.2886 31.4766 19.2886H34.2799C35.4039 19.2886 36.315 20.1997 36.315 21.3237Z" fill="#FCA863"/>
<path d="M35.0425 11.061V18.9871H36.8602C37.5006 18.9871 37.8747 19.7093 37.5052 20.2324L33.5159 25.8804C33.2013 26.3259 32.5405 26.3259 32.2259 25.8804L28.2365 20.2324C27.867 19.7093 28.2411 18.9871 28.8815 18.9871H30.6992V11.061C30.6992 9.57573 29.4909 8.36737 28.0055 8.36737C26.5202 8.36737 25.312 9.57573 25.312 11.061V19.2885H20.9688V11.061C20.9688 7.18081 24.1255 4.02417 28.0055 4.02417C31.8856 4.02417 35.0425 7.18089 35.0425 11.061Z" fill="#7986E8"/>
<path d="M37.5033 20.2325L33.5138 25.88C33.1991 26.3259 32.5391 26.3259 32.2244 25.88L31.7793 25.2498L35.323 20.2326C35.6923 19.7095 35.319 18.9867 34.6783 18.9867H33.665C33.2205 18.9867 32.8602 18.6264 32.8602 18.1819V11.0608C32.8602 7.55172 30.2783 4.63422 26.9141 4.10868C27.3525 4.04024 27.8032 4.01211 28.263 4.02891C32.0615 4.16735 35.0404 7.35094 35.0404 11.152V18.9866H36.8585C37.4984 18.9866 37.8727 19.7094 37.5033 20.2325Z" fill="#4C5CE1"/>
</svg>
