<svg width="40" height="40" viewBox="0 0 40 40" fill="none" xmlns="http://www.w3.org/2000/svg">
<path d="M1.17188 32.9688C0.524141 32.9688 0 32.4446 0 31.7969V27.1094C0 26.4616 0.524141 25.9375 1.17188 25.9375C1.81961 25.9375 2.34375 26.4616 2.34375 27.1094V31.7969C2.34375 32.4446 1.81961 32.9688 1.17188 32.9688Z" fill="#00D0FF"/>
<path d="M38.8281 32.9688C38.1804 32.9688 37.6562 32.4446 37.6562 31.7969V27.1094C37.6562 26.4616 38.1804 25.9375 38.8281 25.9375C39.4759 25.9375 40 26.4616 40 27.1094V31.7969C40 32.4446 39.4759 32.9688 38.8281 32.9688Z" fill="#00BBFF"/>
<path d="M39.25 30.6952L20.4219 23.664C20.2812 23.6172 20.1406 23.5938 20 23.5938C19.8594 23.5938 19.7188 23.6172 19.5781 23.664L0.75 30.6952C0.304688 30.8593 0 31.3046 0 31.7969C0 32.289 0.304688 32.7343 0.75 32.8984L19.5781 39.9296C19.7188 39.9766 19.8594 40 20 40C20.1406 40 20.2812 39.9766 20.4219 39.9296L39.25 32.8984C39.6953 32.7343 40 32.289 40 31.7969C40 31.3046 39.6953 30.8593 39.25 30.6952Z" fill="#00E3FF"/>
<path d="M40 31.7969C40 32.289 39.6953 32.7343 39.25 32.8984L20.4219 39.9296C20.2812 39.9766 20.1406 40 20 40V23.5938C20.1406 23.5938 20.2812 23.6172 20.4219 23.664L39.25 30.6952C39.6953 30.8593 40 31.3046 40 31.7969Z" fill="#00D0FF"/>
<path d="M20.0001 26.0077L4.5 31.7968L20.0001 37.5858L35.5002 31.7968L20.0001 26.0077Z" fill="#00D0FF"/>
<path d="M35.5001 31.7968L20 37.5858V26.0077L35.5001 31.7968Z" fill="#00BBFF"/>
<path d="M27.6406 5.14844L21.4453 7.55523L20 10.7031L17.6562 11.875V17.7344L20 21.0859C20.1876 21.0859 20.3749 21.039 20.5625 20.9453L30.0156 15.7188C30.3907 15.5078 30.625 15.1329 30.625 14.7109V5.42969L27.6406 5.14844Z" fill="#4C5CE1"/>
<path d="M12.3594 5.14844L9.375 5.42969V14.7109C9.375 15.1329 9.6093 15.5078 9.98438 15.7188L19.4375 20.9453C19.6251 21.039 19.8124 21.0859 20 21.0859V10.7031L18.8502 7.52344L12.3594 5.14844Z" fill="#6E77E5"/>
<path d="M32.993 33.039L29.665 31.7969L32.993 30.5546C33.6024 30.3203 33.9071 29.6406 33.6727 29.0313C33.4384 28.4453 32.782 28.1406 32.1727 28.3515L26.2586 30.5546L23.3289 29.4531L26.6571 28.2109C27.2663 27.9766 27.5711 27.2968 27.3367 26.6875C27.1257 26.1016 26.4461 25.7969 25.8367 26.0078L20.0008 28.2109L14.1648 26.0078C13.5555 25.7969 12.8758 26.1016 12.6648 26.6875C12.4306 27.2967 12.7352 27.9766 13.3445 28.2109L16.6728 29.4531L13.7431 30.5546L7.82907 28.3515C7.21969 28.1172 6.53993 28.4453 6.32907 29.0313C6.09461 29.6405 6.3993 30.3203 7.00867 30.5546L10.3367 31.7969L7.00867 33.039C6.3993 33.2735 6.09461 33.9531 6.32907 34.5625C6.56336 35.1485 7.21969 35.4531 7.82907 35.2421L13.7431 33.039L16.6728 34.1406L13.3446 35.3828C12.7354 35.6172 12.4306 36.2968 12.665 36.9063C12.876 37.4922 13.5556 37.7969 14.165 37.5859L20.0009 35.3828L25.8369 37.5859C25.9775 37.6328 26.1181 37.6563 26.2588 37.6563C26.7275 37.6563 27.1728 37.375 27.337 36.9063C27.5713 36.2969 27.2666 35.6172 26.6573 35.3828L23.3289 34.1406L26.2586 33.039L32.1727 35.2421C32.3133 35.2891 32.4305 35.3125 32.5712 35.3125C33.0633 35.3125 33.5086 35.0313 33.6727 34.5625C33.9072 33.9531 33.6025 33.2735 32.993 33.039ZM20.0009 32.8984L17.0946 31.7969L20.0009 30.6953L22.9071 31.7969L20.0009 32.8984Z" fill="#00E3FF"/>
<path d="M1.17188 16.5625C0.524141 16.5625 0 16.0384 0 15.3906V13.0469C0 12.3991 0.524141 11.875 1.17188 11.875C1.81961 11.875 2.34375 12.3991 2.34375 13.0469V15.3906C2.34375 16.0384 1.81961 16.5625 1.17188 16.5625Z" fill="#00D0FF"/>
<path d="M1.17188 23.5938C0.524141 23.5938 0 23.0696 0 22.4219V20.0781C0 19.4304 0.524141 18.9062 1.17188 18.9062C1.81961 18.9062 2.34375 19.4304 2.34375 20.0781V22.4219C2.34375 23.0696 1.81961 23.5938 1.17188 23.5938Z" fill="#00D0FF"/>
<path d="M1.17188 9.53125C0.524141 9.53125 0 9.00711 0 8.35938V6.01562C0 5.36789 0.524141 4.84375 1.17188 4.84375C1.81961 4.84375 2.34375 5.36789 2.34375 6.01562V8.35938C2.34375 9.00711 1.81961 9.53125 1.17188 9.53125Z" fill="#00D0FF"/>
<path d="M38.8281 16.5625C38.1804 16.5625 37.6562 16.0384 37.6562 15.3906V13.0469C37.6562 12.3991 38.1804 11.875 38.8281 11.875C39.4759 11.875 40 12.3991 40 13.0469V15.3906C40 16.0384 39.4759 16.5625 38.8281 16.5625Z" fill="#00BBFF"/>
<path d="M38.8281 23.5938C38.1804 23.5938 37.6562 23.0696 37.6562 22.4219V20.0781C37.6562 19.4304 38.1804 18.9062 38.8281 18.9062C39.4759 18.9062 40 19.4304 40 20.0781V22.4219C40 23.0696 39.4759 23.5938 38.8281 23.5938Z" fill="#00BBFF"/>
<path d="M38.8281 9.53125C38.1804 9.53125 37.6562 9.00711 37.6562 8.35938V6.01562C37.6562 5.36789 38.1804 4.84375 38.8281 4.84375C39.4759 4.84375 40 5.36789 40 6.01562V8.35938C40 9.00711 39.4759 9.53125 38.8281 9.53125Z" fill="#00BBFF"/>
<path d="M5.85938 11.875C5.21164 11.875 4.6875 11.3509 4.6875 10.7031V8.35938C4.6875 7.71164 5.21164 7.1875 5.85938 7.1875C6.50711 7.1875 7.03125 7.71164 7.03125 8.35938V10.7031C7.03125 11.3509 6.50711 11.875 5.85938 11.875Z" fill="#00D0FF"/>
<path d="M5.85938 18.9062C5.21164 18.9062 4.6875 18.3821 4.6875 17.7344V15.3906C4.6875 14.7429 5.21164 14.2188 5.85938 14.2188C6.50711 14.2188 7.03125 14.7429 7.03125 15.3906V17.7344C7.03125 18.3821 6.50711 18.9062 5.85938 18.9062Z" fill="#00D0FF"/>
<path d="M5.85938 25.9375C5.21164 25.9375 4.6875 25.4134 4.6875 24.7656V22.4219C4.6875 21.7741 5.21164 21.25 5.85938 21.25C6.50711 21.25 7.03125 21.7741 7.03125 22.4219V24.7656C7.03125 25.4134 6.50711 25.9375 5.85938 25.9375Z" fill="#00D0FF"/>
<path d="M5.85938 4.84375C5.21164 4.84375 4.6875 4.31961 4.6875 3.67188V1.17188C4.6875 0.524141 5.21164 0 5.85938 0C6.50711 0 7.03125 0.524141 7.03125 1.17188V3.67188C7.03125 4.31961 6.50711 4.84375 5.85938 4.84375Z" fill="#00D0FF"/>
<path d="M34.1406 11.875C33.4929 11.875 32.9688 11.3509 32.9688 10.7031V8.35938C32.9688 7.71164 33.4929 7.1875 34.1406 7.1875C34.7884 7.1875 35.3125 7.71164 35.3125 8.35938V10.7031C35.3125 11.3509 34.7884 11.875 34.1406 11.875Z" fill="#00BBFF"/>
<path d="M34.1406 18.9062C33.4929 18.9062 32.9688 18.3821 32.9688 17.7344V15.3906C32.9688 14.7429 33.4929 14.2188 34.1406 14.2188C34.7884 14.2188 35.3125 14.7429 35.3125 15.3906V17.7344C35.3125 18.3821 34.7884 18.9062 34.1406 18.9062Z" fill="#00BBFF"/>
<path d="M34.1406 25.9375C33.4929 25.9375 32.9688 25.4134 32.9688 24.7656V22.4219C32.9688 21.7741 33.4929 21.25 34.1406 21.25C34.7884 21.25 35.3125 21.7741 35.3125 22.4219V24.7656C35.3125 25.4134 34.7884 25.9375 34.1406 25.9375Z" fill="#00BBFF"/>
<path d="M34.1406 4.84375C33.4929 4.84375 32.9688 4.31961 32.9688 3.67188V1.17188C32.9688 0.524141 33.4929 0 34.1406 0C34.7884 0 35.3125 0.524141 35.3125 1.17188V3.67188C35.3125 4.31961 34.7884 4.84375 34.1406 4.84375Z" fill="#00BBFF"/>
<path d="M30.625 5.42969L20 10.7031L9.375 5.42969L20 0L30.625 5.42969Z" fill="#7986E8"/>
<path d="M33.672 34.5625C33.508 35.0313 33.0627 35.3125 32.5705 35.3125C32.4299 35.3125 32.3127 35.2891 32.172 35.2421L26.258 33.039L23.3282 34.1406L26.6564 35.3828C27.2656 35.6172 27.5704 36.2968 27.336 36.9063C27.172 37.375 26.7266 37.6563 26.2578 37.6563C26.1172 37.6563 25.9766 37.6328 25.8359 37.5859L20 35.3828V32.8984L22.9064 31.7969L20.0002 30.6953V28.2109L25.8361 26.0078C26.4455 25.7969 27.1252 26.1016 27.3361 26.6875C27.5704 27.2967 27.2657 27.9766 26.6565 28.2109L23.3282 29.4531L26.2579 30.5546L32.172 28.3515C32.7813 28.1406 33.4377 28.4453 33.672 29.0313C33.9064 29.6405 33.6017 30.3203 32.9923 30.5546L29.6643 31.7969L32.9923 33.039C33.6018 33.2735 33.9065 33.9531 33.672 34.5625Z" fill="#00D0FF"/>
</svg>
