<svg width="40" height="36" viewBox="0 0 40 36" fill="none" xmlns="http://www.w3.org/2000/svg">
<path d="M28.2031 32.0625C28.2031 32.7187 27.6876 33.2344 27.0312 33.2344H12.9688C12.3124 33.2344 11.7969 32.7187 11.7969 32.0625C11.7969 31.4062 12.3124 30.8906 12.9688 30.8906H27.0312C27.6876 30.8906 28.2031 31.4062 28.2031 32.0625Z" fill="#DEC7FF"/>
<path d="M28.2031 32.0625C28.2031 32.7187 27.6876 33.2344 27.0312 33.2344H17.6562V30.8906H27.0312C27.6876 30.8906 28.2031 31.4062 28.2031 32.0625Z" fill="#5C27FE"/>
<path d="M28.2031 3.9375C28.2031 4.59367 27.6876 5.10938 27.0312 5.10938H12.9688C12.3124 5.10938 11.7969 4.59367 11.7969 3.9375C11.7969 3.28117 12.3124 2.76562 12.9688 2.76562H27.0312C27.6876 2.76562 28.2031 3.28117 28.2031 3.9375Z" fill="#DEC7FF"/>
<path d="M35.3582 17.0753C34.9279 17.0753 34.5147 16.8384 34.3087 16.4276L29.374 6.55821C29.0845 5.97915 29.3191 5.27532 29.8982 4.98579C30.4761 4.69743 31.1811 4.9297 31.4706 5.50993L36.4053 15.3793C36.6948 15.9584 36.4602 16.6622 35.8811 16.9517C35.7129 17.0352 35.5344 17.0753 35.3582 17.0753Z" fill="#5C27FE"/>
<path d="M30.4207 31.1379C30.2445 31.1379 30.0659 31.0978 29.8977 31.0143C29.4869 30.8094 29.25 30.3951 29.25 29.966C29.25 29.7897 29.2901 29.6101 29.3736 29.4418L34.3083 19.5725C34.599 18.9934 35.3005 18.7611 35.8807 19.0483C36.2916 19.2532 36.5284 19.6675 36.5284 20.0966C36.5284 20.2729 36.4884 20.4526 36.4048 20.6208L31.4702 30.4901C31.2641 30.901 30.851 31.1379 30.4207 31.1379Z" fill="#5C27FE"/>
<path d="M4.63989 17.0753C4.46364 17.0753 4.28513 17.0352 4.11693 16.9517C3.53786 16.6622 3.30325 15.9584 3.59278 15.3793L8.52747 5.50993C8.81817 4.9297 9.51966 4.69743 10.0999 4.98579C10.679 5.27532 10.9136 5.97915 10.624 6.55821L5.68935 16.4276C5.48333 16.8384 5.07021 17.0753 4.63989 17.0753Z" fill="#DEC7FF"/>
<path d="M9.57692 31.1379C9.14661 31.1379 8.73349 30.901 8.52747 30.4901L3.59278 20.6208C3.30325 20.0417 3.53786 19.3379 4.11693 19.0483C4.69482 18.7611 5.39982 18.9934 5.68935 19.5725L10.624 29.4418C10.9136 30.0209 10.679 30.7247 10.0999 31.0143C9.93169 31.0978 9.75317 31.1379 9.57692 31.1379Z" fill="#DEC7FF"/>
<path d="M34.3108 18.1237C34.1838 18.1237 34.0556 18.1031 33.9297 18.0597L26.4041 15.4687C25.7918 15.2582 25.4668 14.591 25.6774 13.9798C25.8879 13.3676 26.5563 13.0437 27.1663 13.2531L34.6919 15.844C35.3042 16.0546 35.6292 16.7218 35.4186 17.3329C35.2515 17.8194 34.7972 18.1237 34.3108 18.1237Z" fill="#5C27FE"/>
<path d="M25.2567 12.2105C25.0164 12.2105 24.7726 12.1361 24.5632 11.9827C24.0425 11.5994 23.9303 10.8658 24.3137 10.3439L27.8637 5.51679C28.247 4.99608 28.9783 4.88507 29.5025 5.26733C30.0232 5.65069 30.1354 6.38429 29.7519 6.90616L26.202 11.7333C25.9719 12.0456 25.6172 12.2105 25.2567 12.2105Z" fill="#5C27FE"/>
<path d="M23.7027 12.6561C23.4917 13.0078 23.1168 13.1953 22.7417 13.1953C22.5074 13.1953 22.2964 13.1249 22.0855 12.9843L17.6558 10.0311L11.9136 6.21083C11.3746 5.85935 11.234 5.13279 11.6089 4.59365C11.9604 4.05466 12.687 3.91404 13.2261 4.2656L17.6557 7.21857L23.3979 11.0389C23.937 11.3906 24.0776 12.1172 23.7027 12.6561Z" fill="#DEC7FF"/>
<path d="M19.0616 21.9848C18.8167 21.9848 18.5707 21.9082 18.3601 21.7502C17.8417 21.3623 17.7364 20.6276 18.1255 20.1103L22.3438 14.4844C22.7328 13.9659 23.4676 13.863 23.9837 14.2498C24.5021 14.6377 24.6074 15.3724 24.2183 15.8897L20 21.5156C19.77 21.8234 19.4187 21.9848 19.0616 21.9848Z" fill="#5C27FE"/>
<path d="M15.4355 23.1179C15.3131 23.1179 15.1884 23.0984 15.0648 23.0572L5.44945 19.8529C4.83601 19.6492 4.50414 18.9854 4.70898 18.3708C4.91265 17.7586 5.57187 17.4221 6.19101 17.6304L15.8063 20.8347C16.4198 21.0384 16.7516 21.7022 16.5468 22.3168C16.3831 22.8077 15.9265 23.1179 15.4355 23.1179Z" fill="#DEC7FF"/>
<path d="M27.5422 31.7708C27.2859 31.7708 27.0272 31.6873 26.811 31.5145L18.7521 25.0669C18.2474 24.6617 18.165 23.9248 18.5689 23.4189C18.9752 22.9154 19.7111 22.8307 20.2169 23.2358L28.2758 29.6834C28.7805 30.0885 28.8629 30.8255 28.4589 31.3313C28.2265 31.6197 27.8867 31.7708 27.5422 31.7708Z" fill="#5C27FE"/>
<path d="M12.0303 31.3598C11.7854 31.3598 11.5394 31.2832 11.3289 31.1252C10.8104 30.7373 10.7052 30.0026 11.0942 29.4853L15.3125 23.8594C15.7028 23.3409 16.4352 23.238 16.9525 23.6248C17.4709 24.0127 17.5761 24.7474 17.1871 25.2647L12.9688 30.8906C12.7388 31.1984 12.3875 31.3598 12.0303 31.3598Z" fill="#DEC7FF"/>
<path d="M16.8312 21.6644C16.3574 21.6644 15.9099 21.3749 15.7337 20.9045L10.3481 6.54441C10.1215 5.93785 10.4281 5.26269 11.0335 5.03496C11.6377 4.80839 12.3152 5.11394 12.543 5.72042L17.9286 20.0805C18.1552 20.6871 17.8485 21.3622 17.2431 21.59C17.107 21.6404 16.9685 21.6644 16.8312 21.6644Z" fill="#DEC7FF"/>
<path d="M19.9286 23.2907C19.4033 23.2907 18.9261 22.936 18.7934 22.4027C18.6355 21.7756 19.0177 21.1393 19.646 20.9825L33.8481 17.4325C34.4741 17.2735 35.1115 17.6557 35.2683 18.2851C35.4262 18.9122 35.044 19.5486 34.4158 19.7053L20.2136 23.2553C20.1186 23.2793 20.0225 23.2907 19.9286 23.2907Z" fill="#5C27FE"/>
<path d="M27.0312 5.10938H17.6562V2.76562H27.0312C27.6876 2.76562 28.2031 3.28117 28.2031 3.9375C28.2031 4.59367 27.6876 5.10938 27.0312 5.10938Z" fill="#5C27FE"/>
<path d="M23.7031 12.6562C23.4921 13.0079 23.1172 13.1954 22.7421 13.1954C22.5078 13.1954 22.2968 13.125 22.0859 12.9844L17.6562 10.0312V7.21875L23.3984 11.0391C23.9374 11.3907 24.078 12.1173 23.7031 12.6562Z" fill="#5C27FE"/>
<path d="M17.6562 19.1719C15.7109 19.1719 14.1406 20.7421 14.1406 22.6875C14.1406 24.6327 15.7109 26.2031 17.6562 26.2031C19.6016 26.2031 21.1719 24.6327 21.1719 22.6875C21.1719 20.7421 19.6016 19.1719 17.6562 19.1719Z" fill="#00E3FF"/>
<path d="M21.1719 22.6875C21.1719 24.6327 19.6016 26.2031 17.6562 26.2031V19.1719C19.6016 19.1719 21.1719 20.7421 21.1719 22.6875Z" fill="#00E3FF"/>
<path d="M36.4062 21.5156C34.4677 21.5156 32.8906 19.9386 32.8906 18C32.8906 16.0614 34.4677 14.4844 36.4062 14.4844C38.3448 14.4844 40 16.0614 40 18C40 19.9386 38.3448 21.5156 36.4062 21.5156Z" fill="#00E3FF"/>
<path d="M29.375 7.45312C27.4364 7.45312 25.8594 5.87609 25.8594 3.9375C25.8594 1.99891 27.4364 0.421875 29.375 0.421875C31.3136 0.421875 32.8906 1.99891 32.8906 3.9375C32.8906 5.87609 31.3136 7.45312 29.375 7.45312Z" fill="#00E3FF"/>
<path d="M24.6875 16.8281C22.7489 16.8281 21.1719 15.2511 21.1719 13.3125C21.1719 11.3739 22.7489 9.79688 24.6875 9.79688C26.6261 9.79688 28.2031 11.3739 28.2031 13.3125C28.2031 15.2511 26.6261 16.8281 24.6875 16.8281Z" fill="#00E3FF"/>
<path d="M29.375 35.5781C27.4364 35.5781 25.8594 34.0011 25.8594 32.0625C25.8594 30.1239 27.4364 28.5469 29.375 28.5469C31.3136 28.5469 32.8906 30.1239 32.8906 32.0625C32.8906 34.0011 31.3136 35.5781 29.375 35.5781Z" fill="#00E3FF"/>
<path d="M3.59375 21.5156C1.65516 21.5156 0 19.9386 0 18C0 16.0614 1.65516 14.4844 3.59375 14.4844C5.53234 14.4844 7.10938 16.0614 7.10938 18C7.10938 19.9386 5.53234 21.5156 3.59375 21.5156Z" fill="#00E3FF"/>
<path d="M10.625 7.45312C8.68641 7.45312 7.10938 5.87609 7.10938 3.9375C7.10938 1.99891 8.68641 0.421875 10.625 0.421875C12.5636 0.421875 14.1406 1.99891 14.1406 3.9375C14.1406 5.87609 12.5636 7.45312 10.625 7.45312Z" fill="#00E3FF"/>
<path d="M10.625 35.5781C8.68641 35.5781 7.10938 34.0011 7.10938 32.0625C7.10938 30.1239 8.68641 28.5469 10.625 28.5469C12.5636 28.5469 14.1406 30.1239 14.1406 32.0625C14.1406 34.0011 12.5636 35.5781 10.625 35.5781Z" fill="#00E3FF"/>
</svg>
